<svg xmlns="http://www.w3.org/2000/svg" xmlns:xlink="http://www.w3.org/1999/xlink" id="caravel_floorplan" width="100%" height="100%" version="1.1" viewBox="-6 -6 1676 1734"><desc>XCircuit Version 3.10 File &quot;caravel_floorplan.ps&quot; Page 1</desc><g stroke="#000"><path fill="none" stroke="#000" stroke-linecap="round" stroke-linejoin="bevel" stroke-width="2" d="M0,1728 L0,0 1184,0 1184,1728 z"/><path fill="none" stroke="#000" stroke-linecap="round" stroke-linejoin="bevel" stroke-width="2" d="M96,1248 L96,96 1088,96 1088,1248 z"/><path fill="none" stroke="#000" stroke-linecap="round" stroke-linejoin="bevel" stroke-width="2" d="M64,1664 L64,64 1120,64 1120,1664 z"/><g fill="#000"><text stroke="none" font-family="Helvetica" font-size="40" transform="matrix( 1 0 -0 1 528 48)"><tspan x="0" y="0">chip_io</tspan></text></g><g fill="#000"><text stroke="none" font-family="Helvetica" font-size="40" transform="matrix( 1 0 -0 1 400 736)"><tspan x="0" y="0">user_project_wrapper</tspan></text></g><path fill="none" stroke="#000" stroke-linecap="round" stroke-linejoin="bevel" stroke-width="2" d="M96,1632 L96,1328 1008,1328 1008,1632 z"/><g fill="#000"><text stroke="none" font-family="Helvetica" font-size="40" transform="matrix( 1 0 -0 1 416 1488)"><tspan x="0" y="0">mgmt_core_wrapper</tspan></text></g><path fill="none" stroke="#000" stroke-linecap="round" stroke-linejoin="bevel" stroke-width="2" d="M96,1312 L96,1264 1008,1264 1008,1312 z"/><g fill="#000"><text stroke="none" font-family="Helvetica" font-size="40" transform="matrix( 1 0 -0 1 448 1296)"><tspan x="0" y="0">mgmt_protect</tspan></text></g><g fill="#000"><text stroke="none" font-family="Helvetica" font-size="40" transform="matrix(-1.16895e-11 -1 1 -1.16895e-11 1056 1440)"><tspan x="-125" y="15">housekeeping</tspan></text></g><g fill="#000"><text stroke="none" font-family="Helvetica" font-size="40" transform="matrix( 1 0 -0 1 1200 352)"><tspan x="0" y="-200">padframe:</tspan><tspan x="0" y="-160">each GPIO pad</tspan><tspan x="0" y="-120">has an associated</tspan><tspan x="0" y="-80">gpio_control_block</tspan><tspan x="0" y="-40">and</tspan><tspan x="0" y="0">gpio_defaults_block</tspan></text></g><g fill="#000"><text stroke="none" font-family="Helvetica" font-size="40" transform="matrix( 1 0 -0 1 1280 1056)"><tspan x="0" y="0">caravel_clocking</tspan></text></g><g fill="#000"><text stroke="none" font-family="Helvetica" font-size="40" transform="matrix( 1 0 -0 1 1280 1120)"><tspan x="0" y="0">digital_pll</tspan></text></g><g fill="#000"><text stroke="none" font-family="Helvetica" font-size="40" transform="matrix( 1 0 -0 1 1280 1184)"><tspan x="0" y="0">user_id_programming</tspan></text></g><g fill="#000"><text stroke="none" font-family="Helvetica" font-size="40" transform="matrix( 1 0 -0 1 1280 1248)"><tspan x="0" y="0">simple_por</tspan></text></g><g fill="#000"><text stroke="none" font-family="Helvetica" font-size="40" transform="matrix( 1 0 -0 1 1280 1312)"><tspan x="0" y="0">xres_buf</tspan></text></g><g fill="#000"><text stroke="none" font-family="Helvetica" font-size="40" transform="matrix( 1 0 -0 1 1216 1056)"><tspan x="0" y="0">c=</tspan></text></g><g fill="#000"><text stroke="none" font-family="Helvetica" font-size="40" transform="matrix( 1 0 -0 1 1216 1120)"><tspan x="0" y="0">d=</tspan></text></g><g fill="#000"><text stroke="none" font-family="Helvetica" font-size="40" transform="matrix( 1 0 -0 1 1216 1184)"><tspan x="0" y="0">u=</tspan></text></g><g fill="#000"><text stroke="none" font-family="Helvetica" font-size="40" transform="matrix( 1 0 -0 1 1216 1248)"><tspan x="0" y="0">p=</tspan></text></g><g fill="#000"><text stroke="none" font-family="Helvetica" font-size="40" transform="matrix( 1 0 -0 1 1216 1312)"><tspan x="0" y="0">x=</tspan></text></g><path fill="none" stroke="#000" stroke-linecap="round" stroke-linejoin="bevel" stroke-width="2" d="M1056,1712 L1056,1664 1104,1664 1104,1712 z"/><path fill="none" stroke="#000" stroke-linecap="round" stroke-linejoin="bevel" stroke-width="2" d="M896,1712 L896,1664 944,1664 944,1712 z"/><path fill="none" stroke="#000" stroke-linecap="round" stroke-linejoin="bevel" stroke-width="2" d="M1120,1568 L1120,1520 1168,1520 1168,1568 z"/><path fill="none" stroke="#000" stroke-linecap="round" stroke-linejoin="bevel" stroke-width="2" d="M1120,1632 L1120,1584 1168,1584 1168,1632 z"/><path fill="none" stroke="#000" stroke-linecap="round" stroke-linejoin="bevel" stroke-width="2" d="M976,1712 L976,1664 1024,1664 1024,1712 z"/><g fill="#000"><text stroke="none" font-family="Helvetica" font-size="40" transform="matrix( 1 0 -0 1 992 1696)"><tspan x="0" y="0">x</tspan></text></g><g fill="#000"><text stroke="none" font-family="Helvetica" font-size="40" transform="matrix( 1 0 -0 1 1136 1616)"><tspan x="0" y="0">c</tspan></text></g><g fill="#000"><text stroke="none" font-family="Helvetica" font-size="40" transform="matrix( 1 0 -0 1 1136 1552)"><tspan x="0" y="0">d</tspan></text></g><g fill="#000"><text stroke="none" font-family="Helvetica" font-size="40" transform="matrix( 1 0 -0 1 912 1696)"><tspan x="0" y="0">p</tspan></text></g><g fill="#000"><text stroke="none" font-family="Helvetica" font-size="40" transform="matrix( 1 0 -0 1 1072 1696)"><tspan x="0" y="0">u</tspan></text></g><path fill="none" stroke="#000" stroke-linecap="round" stroke-linejoin="bevel" stroke-width="2" d="M1024,1648 L1024,1264 1104,1264 1104,1648 z"/></g></svg>